<svg xmlns="http://www.w3.org/2000/svg" viewBox="0 0 1200 900" fill="none">
  <rect width="1200" height="900" fill="#FFFFFF"/>
  <rect x="0" y="640" width="1200" height="260" fill="#0D1B2A" opacity="0.06"/>
  <rect x="80" y="170" width="1040" height="520" rx="22" fill="#0D1B2A"/>
  <rect x="120" y="210" width="960" height="440" rx="12" stroke="#FFFFFF" stroke-opacity="0.18"/>
  <rect x="150" y="250" width="300" height="340" rx="8" fill="#1E3A5F"/>
  <rect x="480" y="250" width="210" height="340" rx="8" fill="#1E3A5F"/>
  <rect x="720" y="250" width="330" height="340" rx="8" fill="#1E3A5F"/>
  <rect x="500" y="130" width="200" height="70" rx="35" fill="#FFFFFF"/>
  <text x="600" y="175" text-anchor="middle" font-family="Arial, sans-serif" font-size="34" letter-spacing="8" fill="#0D1B2A">AXIAL</text>
  <rect x="190" y="300" width="220" height="230" rx="4" stroke="#FFFFFF" stroke-opacity="0.18"/>
  <rect x="535" y="300" width="100" height="230" rx="4" stroke="#FFFFFF" stroke-opacity="0.18"/>
  <rect x="760" y="300" width="250" height="230" rx="4" stroke="#FFFFFF" stroke-opacity="0.18"/>
  <path d="M0 675L1200 675" stroke="#FFFFFF" stroke-opacity="0.08"/>
  <path d="M80 650L1120 650" stroke="#FFFFFF" stroke-opacity="0.12"/>
  <circle cx="1080" cy="120" r="52" fill="#1E3A5F" opacity="0.12"/>
  <circle cx="150" cy="100" r="74" fill="#1E3A5F" opacity="0.08"/>
  <rect x="160" y="710" width="140" height="10" rx="5" fill="#0D1B2A" opacity="0.12"/>
  <rect x="900" y="710" width="180" height="10" rx="5" fill="#0D1B2A" opacity="0.12"/>
</svg>
