<svg width="1400" height="1200" viewBox="0 0 1400 1200" fill="none" xmlns="http://www.w3.org/2000/svg">
  <rect width="1400" height="1200" fill="#0F2233"/>
  <rect width="1400" height="1200" fill="url(#bg)"/>
  <g opacity="0.45">
    <path d="M0 982C183 926 294 896 427 818C560 740 656 578 830 506C1004 434 1148 446 1400 320V1200H0V982Z" fill="#143E59"/>
    <path d="M165 1200C260 1024 326 946 463 878C623 798 744 804 907 734C1070 664 1186 564 1400 384V1200H165Z" fill="#185D79"/>
  </g>
  <g opacity="0.18">
    <circle cx="257" cy="218" r="177" fill="#39C2DE"/>
    <circle cx="1211" cy="178" r="208" fill="#2F5D83"/>
  </g>
  <g opacity="0.1" stroke="#DDF7FF">
    <path d="M120 146H510"/>
    <path d="M120 194H452"/>
    <path d="M120 242H394"/>
  </g>
  <g>
    <rect x="852" y="225" width="318" height="686" rx="34" fill="#F3F7FA" fill-opacity="0.96"/>
    <rect x="885" y="281" width="250" height="280" rx="26" fill="#D7E6EE"/>
    <rect x="914" y="312" width="190" height="190" rx="95" fill="#B8D1DD"/>
    <rect x="914" y="594" width="190" height="23" rx="11.5" fill="#89A7B9"/>
    <rect x="914" y="640" width="146" height="20" rx="10" fill="#9EB6C4"/>
    <rect x="885" y="713" width="250" height="154" rx="26" fill="#E4EEF3"/>
    <rect x="914" y="748" width="190" height="16" rx="8" fill="#9EB6C4"/>
    <rect x="914" y="784" width="158" height="16" rx="8" fill="#89A7B9"/>
    <rect x="914" y="820" width="106" height="16" rx="8" fill="#9EB6C4"/>
  </g>
  <g>
    <ellipse cx="595" cy="981" rx="254" ry="42" fill="#0A1723" fill-opacity="0.4"/>
    <path d="M585 376C531 376 488 420 488 474V655H705V474C705 420 661 376 607 376H585Z" fill="#E9BBA3"/>
    <path d="M540 326C540 285.131 573.131 252 614 252C654.869 252 688 285.131 688 326V411H540V326Z" fill="#E9BBA3"/>
    <path d="M547 324C547 280.922 581.922 246 625 246C668.078 246 703 280.922 703 324V353C703 361.837 695.837 369 687 369H563C554.163 369 547 361.837 547 353V324Z" fill="#0D1B2A"/>
    <path d="M515 649H716L742 997H489L515 649Z" fill="#F6F8FB"/>
    <path d="M542 649H691L705 997H529L542 649Z" fill="#DDE7EE"/>
    <path d="M528 497H413C378.206 497 350 525.206 350 560V656H528V497Z" fill="#E9BBA3"/>
    <path d="M677 497H802C836.794 497 865 525.206 865 560V656H677V497Z" fill="#E9BBA3"/>
    <path d="M478 665H722L714 754H486L478 665Z" fill="#39C2DE" fill-opacity="0.7"/>
  </g>
  <g>
    <ellipse cx="349" cy="1005" rx="195" ry="38" fill="#08131E" fill-opacity="0.35"/>
    <path d="M320 415C272.503 415 234 453.503 234 501V622H444V501C444 453.503 405.497 415 358 415H320Z" fill="#D5967B"/>
    <path d="M262 622H433L452 987H243L262 622Z" fill="#19A7C6"/>
    <path d="M287 321C287 283.997 316.997 254 354 254C391.003 254 421 283.997 421 321V413H287V321Z" fill="#D5967B"/>
    <path d="M284 321C284 279.34 317.34 246 359 246C400.66 246 434 279.34 434 321V346C434 354.837 426.837 362 418 362H300C291.163 362 284 354.837 284 346V321Z" fill="#10263A"/>
    <path d="M250 632H448L458 742H240L250 632Z" fill="#2F5D83"/>
    <path d="M300 742H399L392 987H307L300 742Z" fill="#10263A"/>
  </g>
  <g opacity="0.85">
    <rect x="140" y="845" width="303" height="126" rx="28" fill="#0B1825" fill-opacity="0.54" stroke="#74D9EA" stroke-opacity="0.28"/>
    <text x="178" y="897" fill="#EAF8FC" font-size="32" font-family="Inter, Arial, sans-serif" font-weight="700">Valoración funcional</text>
    <text x="178" y="939" fill="#B5D7E3" font-size="24" font-family="Inter, Arial, sans-serif">dolor · carga · movimiento</text>
  </g>
  <defs>
    <linearGradient id="bg" x1="121" y1="82" x2="1249" y2="1154" gradientUnits="userSpaceOnUse">
      <stop stop-color="#0D1B2A"/>
      <stop offset="0.58" stop-color="#123149"/>
      <stop offset="1" stop-color="#17627D"/>
    </linearGradient>
  </defs>
</svg>
