<svg width="1200" height="630" viewBox="0 0 1200 630" fill="none" xmlns="http://www.w3.org/2000/svg">
  <rect width="1200" height="630" fill="#F7F7F5"/>
  <circle cx="1004" cy="138" r="210" fill="#1FAFC4" fill-opacity="0.10"/>
  <circle cx="183" cy="529" r="150" fill="#4D4A97" fill-opacity="0.08"/>
  <path d="M0 520C185 455 334 424 511 427C737 432 948 513 1200 468V630H0V520Z" fill="#12161D"/>
  <rect x="70" y="82" width="108" height="108" rx="54" fill="#FFFFFF" stroke="#D9DDE3" stroke-width="3"/>
  <circle cx="124" cy="136" r="26" fill="#1FAFC4" fill-opacity="0.10"/>
  <path d="M101 123C106 118 113 116 119 117C125 118 130 122 132 128" stroke="#1FAFC4" stroke-width="4" stroke-linecap="round"/>
  <path d="M105 148C109 152 116 154 122 153C128 152 133 149 136 144" stroke="#4D4A97" stroke-width="4" stroke-linecap="round"/>
  <circle cx="108" cy="130" r="4" fill="#4D4A97"/>
  <circle cx="122" cy="127" r="4" fill="#1FAFC4"/>
  <circle cx="119" cy="142" r="4" fill="#1FAFC4"/>
  <text x="70" y="292" fill="#12161D" font-family="Arial, Helvetica, sans-serif" font-size="76" font-weight="700">Synapthical Sport</text>
  <text x="70" y="360" fill="#4D4A97" font-family="Arial, Helvetica, sans-serif" font-size="30">Rehabilitación deportiva, movimiento funcional y retorno seguro al deporte.</text>
  <text x="70" y="470" fill="#1FAFC4" font-family="Arial, Helvetica, sans-serif" font-size="24" letter-spacing="4">ARMENIA · QUINDÍO</text>
</svg>
